<svg xmlns:xlink="http://www.w3.org/1999/xlink" width="38.975ex" height="12.509ex" style="font-size: 15px; vertical-align: -5.671ex;" viewBox="0 -2944.1 16781 5385.9" role="img" focusable="false" xmlns="http://www.w3.org/2000/svg">
<defs>
<path stroke-width="1" id="E1-MJMATHI-58" d="M42 0H40Q26 0 26 11Q26 15 29 27Q33 41 36 43T55 46Q141 49 190 98Q200 108 306 224T411 342Q302 620 297 625Q288 636 234 637H206Q200 643 200 645T202 664Q206 677 212 683H226Q260 681 347 681Q380 681 408 681T453 682T473 682Q490 682 490 671Q490 670 488 658Q484 643 481 640T465 637Q434 634 411 620L488 426L541 485Q646 598 646 610Q646 628 622 635Q617 635 609 637Q594 637 594 648Q594 650 596 664Q600 677 606 683H618Q619 683 643 683T697 681T738 680Q828 680 837 683H845Q852 676 852 672Q850 647 840 637H824Q790 636 763 628T722 611T698 593L687 584Q687 585 592 480L505 384Q505 383 536 304T601 142T638 56Q648 47 699 46Q734 46 734 37Q734 35 732 23Q728 7 725 4T711 1Q708 1 678 1T589 2Q528 2 496 2T461 1Q444 1 444 10Q444 11 446 25Q448 35 450 39T455 44T464 46T480 47T506 54Q523 62 523 64Q522 64 476 181L429 299Q241 95 236 84Q232 76 232 72Q232 53 261 47Q262 47 267 47T273 46Q276 46 277 46T280 45T283 42T284 35Q284 26 282 19Q279 6 276 4T261 1Q258 1 243 1T201 2T142 2Q64 2 42 0Z"></path>
<path stroke-width="1" id="E1-MJMAIN-3D" d="M56 347Q56 360 70 367H707Q722 359 722 347Q722 336 708 328L390 327H72Q56 332 56 347ZM56 153Q56 168 72 173H708Q722 163 722 153Q722 140 707 133H70Q56 140 56 153Z"></path>
<path stroke-width="1" id="E1-MJMAIN-5B" d="M118 -250V750H255V710H158V-210H255V-250H118Z"></path>
<path stroke-width="1" id="E1-MJMAIN-30" d="M96 585Q152 666 249 666Q297 666 345 640T423 548Q460 465 460 320Q460 165 417 83Q397 41 362 16T301 -15T250 -22Q224 -22 198 -16T137 16T82 83Q39 165 39 320Q39 494 96 585ZM321 597Q291 629 250 629Q208 629 178 597Q153 571 145 525T137 333Q137 175 145 125T181 46Q209 16 250 16Q290 16 318 46Q347 76 354 130T362 333Q362 478 354 524T321 597Z"></path>
<path stroke-width="1" id="E1-MJMAIN-31" d="M213 578L200 573Q186 568 160 563T102 556H83V602H102Q149 604 189 617T245 641T273 663Q275 666 285 666Q294 666 302 660V361L303 61Q310 54 315 52T339 48T401 46H427V0H416Q395 3 257 3Q121 3 100 0H88V46H114Q136 46 152 46T177 47T193 50T201 52T207 57T213 61V578Z"></path>
<path stroke-width="1" id="E1-MJMAIN-5D" d="M22 710V750H159V-250H22V-210H119V710H22Z"></path>
<path stroke-width="1" id="E1-MJSZ3-5B" d="M247 -949V1450H516V1388H309V-887H516V-949H247Z"></path>
<path stroke-width="1" id="E1-MJSZ3-5D" d="M11 1388V1450H280V-949H11V-887H218V1388H11Z"></path>
<path stroke-width="1" id="E1-MJMAIN-2C" d="M78 35T78 60T94 103T137 121Q165 121 187 96T210 8Q210 -27 201 -60T180 -117T154 -158T130 -185T117 -194Q113 -194 104 -185T95 -172Q95 -168 106 -156T131 -126T157 -76T173 -3V9L172 8Q170 7 167 6T161 3T152 1T140 0Q113 0 96 17Z"></path>
<path stroke-width="1" id="E1-MJMATHI-57" d="M436 683Q450 683 486 682T553 680Q604 680 638 681T677 682Q695 682 695 674Q695 670 692 659Q687 641 683 639T661 637Q636 636 621 632T600 624T597 615Q597 603 613 377T629 138L631 141Q633 144 637 151T649 170T666 200T690 241T720 295T759 362Q863 546 877 572T892 604Q892 619 873 628T831 637Q817 637 817 647Q817 650 819 660Q823 676 825 679T839 682Q842 682 856 682T895 682T949 681Q1015 681 1034 683Q1048 683 1048 672Q1048 666 1045 655T1038 640T1028 637Q1006 637 988 631T958 617T939 600T927 584L923 578L754 282Q586 -14 585 -15Q579 -22 561 -22Q546 -22 542 -17Q539 -14 523 229T506 480L494 462Q472 425 366 239Q222 -13 220 -15T215 -19Q210 -22 197 -22Q178 -22 176 -15Q176 -12 154 304T131 622Q129 631 121 633T82 637H58Q51 644 51 648Q52 671 64 683H76Q118 680 176 680Q301 680 313 683H323Q329 677 329 674T327 656Q322 641 318 637H297Q236 634 232 620Q262 160 266 136L501 550L499 587Q496 629 489 632Q483 636 447 637Q428 637 422 639T416 648Q416 650 418 660Q419 664 420 669T421 676T424 680T428 682T436 683Z"></path>
<path stroke-width="1" id="E1-MJMAIN-2E" d="M78 60Q78 84 95 102T138 120Q162 120 180 104T199 61Q199 36 182 18T139 0T96 17T78 60Z"></path>
<path stroke-width="1" id="E1-MJMAIN-33" d="M127 463Q100 463 85 480T69 524Q69 579 117 622T233 665Q268 665 277 664Q351 652 390 611T430 522Q430 470 396 421T302 350L299 348Q299 347 308 345T337 336T375 315Q457 262 457 175Q457 96 395 37T238 -22Q158 -22 100 21T42 130Q42 158 60 175T105 193Q133 193 151 175T169 130Q169 119 166 110T159 94T148 82T136 74T126 70T118 67L114 66Q165 21 238 21Q293 21 321 74Q338 107 338 175V195Q338 290 274 322Q259 328 213 329L171 330L168 332Q166 335 166 348Q166 366 174 366Q202 366 232 371Q266 376 294 413T322 525V533Q322 590 287 612Q265 626 240 626Q208 626 181 615T143 592T132 580H135Q138 579 143 578T153 573T165 566T175 555T183 540T186 520Q186 498 172 481T127 463Z"></path>
<path stroke-width="1" id="E1-MJMAIN-32" d="M109 429Q82 429 66 447T50 491Q50 562 103 614T235 666Q326 666 387 610T449 465Q449 422 429 383T381 315T301 241Q265 210 201 149L142 93L218 92Q375 92 385 97Q392 99 409 186V189H449V186Q448 183 436 95T421 3V0H50V19V31Q50 38 56 46T86 81Q115 113 136 137Q145 147 170 174T204 211T233 244T261 278T284 308T305 340T320 369T333 401T340 431T343 464Q343 527 309 573T212 619Q179 619 154 602T119 569T109 550Q109 549 114 549Q132 549 151 535T170 489Q170 464 154 447T109 429Z"></path>
<path stroke-width="1" id="E1-MJMAIN-34" d="M462 0Q444 3 333 3Q217 3 199 0H190V46H221Q241 46 248 46T265 48T279 53T286 61Q287 63 287 115V165H28V211L179 442Q332 674 334 675Q336 677 355 677H373L379 671V211H471V165H379V114Q379 73 379 66T385 54Q393 47 442 46H471V0H462ZM293 211V545L74 212L183 211H293Z"></path>
<path stroke-width="1" id="E1-MJSZ4-23A1" d="M319 -645V1154H666V1070H403V-645H319Z"></path>
<path stroke-width="1" id="E1-MJSZ4-23A3" d="M319 -644V1155H403V-560H666V-644H319Z"></path>
<path stroke-width="1" id="E1-MJSZ4-23A2" d="M319 0V602H403V0H319Z"></path>
<path stroke-width="1" id="E1-MJSZ4-23A4" d="M0 1070V1154H347V-645H263V1070H0Z"></path>
<path stroke-width="1" id="E1-MJSZ4-23A6" d="M263 -560V1155H347V-644H0V-560H263Z"></path>
<path stroke-width="1" id="E1-MJSZ4-23A5" d="M263 0V602H347V0H263Z"></path>
</defs>
<g stroke="currentColor" fill="currentColor" stroke-width="0" transform="matrix(1 0 0 -1 0 0)">
 <use xlink:href="#E1-MJMATHI-58" x="0" y="0"></use>
 <use xlink:href="#E1-MJMAIN-3D" x="1130" y="0"></use>
<g transform="translate(2186,0)">
 <use xlink:href="#E1-MJSZ3-5B"></use>
<g transform="translate(695,0)">
<g transform="translate(-11,0)">
 <use xlink:href="#E1-MJMAIN-30" x="0" y="650"></use>
 <use xlink:href="#E1-MJMAIN-31" x="0" y="-750"></use>
</g>
<g transform="translate(1490,0)">
 <use xlink:href="#E1-MJMAIN-31" x="0" y="650"></use>
 <use xlink:href="#E1-MJMAIN-30" x="0" y="-750"></use>
</g>
<g transform="translate(2990,0)">
 <use xlink:href="#E1-MJMAIN-30" x="0" y="650"></use>
 <use xlink:href="#E1-MJMAIN-31" x="0" y="-750"></use>
</g>
<g transform="translate(4491,0)">
 <use xlink:href="#E1-MJMAIN-31" x="0" y="650"></use>
 <use xlink:href="#E1-MJMAIN-30" x="0" y="-750"></use>
</g>
</g>
 <use xlink:href="#E1-MJSZ3-5D" x="5854" y="-1"></use>
</g>
 <use xlink:href="#E1-MJMAIN-2C" x="8735" y="0"></use>
 <use xlink:href="#E1-MJMATHI-57" x="9180" y="0"></use>
 <use xlink:href="#E1-MJMAIN-3D" x="10507" y="0"></use>
<g transform="translate(11563,0)">
<g transform="translate(0,2850)">
 <use xlink:href="#E1-MJSZ4-23A1" x="0" y="-1155"></use>
<g transform="translate(0,-3446.188741721854) scale(1,2.8112582781456954)">
 <use xlink:href="#E1-MJSZ4-23A2"></use>
</g>
 <use xlink:href="#E1-MJSZ4-23A3" x="0" y="-4555"></use>
</g>
<g transform="translate(834,0)">
<g transform="translate(-11,0)">
<g transform="translate(0,2050)">
 <use xlink:href="#E1-MJMAIN-30"></use>
 <use xlink:href="#E1-MJMAIN-2E" x="500" y="0"></use>
 <use xlink:href="#E1-MJMAIN-31" x="779" y="0"></use>
</g>
<g transform="translate(0,650)">
 <use xlink:href="#E1-MJMAIN-30"></use>
 <use xlink:href="#E1-MJMAIN-2E" x="500" y="0"></use>
 <use xlink:href="#E1-MJMAIN-33" x="779" y="0"></use>
</g>
<g transform="translate(0,-750)">
 <use xlink:href="#E1-MJMAIN-30"></use>
 <use xlink:href="#E1-MJMAIN-2E" x="500" y="0"></use>
 <use xlink:href="#E1-MJMAIN-32" x="779" y="0"></use>
</g>
<g transform="translate(0,-2150)">
 <use xlink:href="#E1-MJMAIN-30"></use>
 <use xlink:href="#E1-MJMAIN-2E" x="500" y="0"></use>
 <use xlink:href="#E1-MJMAIN-33" x="779" y="0"></use>
</g>
</g>
<g transform="translate(2269,0)">
<g transform="translate(0,2050)">
 <use xlink:href="#E1-MJMAIN-30"></use>
 <use xlink:href="#E1-MJMAIN-2E" x="500" y="0"></use>
 <use xlink:href="#E1-MJMAIN-31" x="779" y="0"></use>
</g>
<g transform="translate(0,650)">
 <use xlink:href="#E1-MJMAIN-30"></use>
 <use xlink:href="#E1-MJMAIN-2E" x="500" y="0"></use>
 <use xlink:href="#E1-MJMAIN-32" x="779" y="0"></use>
</g>
<g transform="translate(0,-750)">
 <use xlink:href="#E1-MJMAIN-30"></use>
 <use xlink:href="#E1-MJMAIN-2E" x="500" y="0"></use>
 <use xlink:href="#E1-MJMAIN-34" x="779" y="0"></use>
</g>
<g transform="translate(0,-2150)">
 <use xlink:href="#E1-MJMAIN-30"></use>
 <use xlink:href="#E1-MJMAIN-2E" x="500" y="0"></use>
 <use xlink:href="#E1-MJMAIN-32" x="779" y="0"></use>
</g>
</g>
</g>
<g transform="translate(4550,2850)">
 <use xlink:href="#E1-MJSZ4-23A4" x="0" y="-1155"></use>
<g transform="translate(0,-3446.188741721854) scale(1,2.8112582781456954)">
 <use xlink:href="#E1-MJSZ4-23A5"></use>
</g>
 <use xlink:href="#E1-MJSZ4-23A6" x="0" y="-4555"></use>
</g>
</g>
</g>
</svg>